<?xml version="1.0" encoding="iso-8859-1"?>
<!-- Generator: Adobe Illustrator 19.0.0, SVG Export Plug-In . SVG Version: 6.00 Build 0)  -->
<svg version="1.1" id="Capa_1" xmlns="http://www.w3.org/2000/svg" xmlns:xlink="http://www.w3.org/1999/xlink" x="0px" y="0px"
	 viewBox="0 0 512 512" style="enable-background:new 0 0 512 512;" xml:space="preserve">
<g>
	<g>
		<path d="M239.069,408.93C237.21,407.069,234.63,406,232,406s-5.21,1.069-7.07,2.93c-1.86,1.861-2.93,4.44-2.93,7.07
			s1.069,5.21,2.93,7.069c1.86,1.86,4.44,2.931,7.07,2.931s5.21-1.07,7.069-2.931C240.93,421.21,242,418.63,242,416
			S240.93,410.79,239.069,408.93z"/>
	</g>
</g>
<g>
	<g>
		<path d="M232,445c-5.522,0-10,4.478-10,10v47c0,5.522,4.478,10,10,10c5.522,0,10-4.478,10-10v-47C242,449.478,237.522,445,232,445
			z"/>
	</g>
</g>
<g>
	<g>
		<path d="M396,153.726c5.522,0,10-4.478,10-10V58c0-31.981-26.019-58-58-58H164c-31.981,0-58,26.019-58,58v244
			c0,31.981,26.019,58,58,58h58v17c0,5.522,4.478,10,10,10c5.522,0,10-4.478,10-10v-17h28v142c0,5.522,4.478,10,10,10
			c5.522,0,10-4.478,10-10V360h58c31.981,0,58-26.019,58-58v-84c0-5.522-4.478-10-10-10c-5.522,0-10,4.478-10,10v84
			c0,20.953-17.047,38-38,38H164c-20.953,0-38-17.047-38-38V58c0-20.953,17.047-38,38-38h184c20.953,0,38,17.047,38,38v85.726
			C386,149.248,390.478,153.726,396,153.726z"/>
	</g>
</g>
<g>
	<g>
		<path d="M403.069,176c-1.859-1.86-4.439-2.931-7.069-2.931s-5.21,1.07-7.07,2.931c-1.86,1.859-2.93,4.439-2.93,7.069
			c0,2.631,1.069,5.211,2.93,7.07c1.86,1.86,4.44,2.93,7.07,2.93c2.64,0,5.21-1.069,7.069-2.93c1.86-1.859,2.931-4.439,2.931-7.07
			C406,180.439,404.93,177.859,403.069,176z"/>
	</g>
</g>
<g>
	<g>
		<path d="M329.288,54H182.712C166.88,54,154,66.88,154,82.712v81.014c0,5.522,4.478,10,10,10h11.387
			c4.128,11.639,15.244,20,28.28,20s24.152-8.361,28.28-20h47.773c4.128,11.639,15.244,20,28.28,20s24.152-8.361,28.28-20H348
			c5.522,0,10-4.478,10-10V82.712C358,66.88,345.12,54,329.288,54z M237.75,74h36.5v29.862h-36.5V74z M174,82.712
			c0-4.804,3.908-8.712,8.712-8.712h35.038v29.862H174V82.712z M213.6,164.847c-0.56,4.987-4.799,8.879-9.933,8.879
			c-5.514,0-10-4.486-10-10c0-5.514,4.486-10,10-10c5.134,0,9.373,3.892,9.933,8.879c-0.042,0.368-0.067,0.742-0.067,1.121
			C213.533,164.105,213.558,164.479,213.6,164.847z M308,173.726c-5.514,0-10-4.487-10-10c0-5.514,4.486-10,10-10
			c5.514,0,10,4.486,10,10C318,169.24,313.514,173.726,308,173.726z M338,153.726h-1.72c-4.128-11.639-15.244-20-28.28-20
			s-24.152,8.361-28.28,20h-47.773c-4.128-11.639-15.244-20-28.28-20c-13.036,0-24.152,8.361-28.28,20H174v-29.863h164V153.726z
			 M338,103.862h-43.75V74h35.038c4.804,0,8.712,3.908,8.712,8.712V103.862z"/>
	</g>
</g>
<g>
	<g>
		<path d="M216.353,247.921c0-15.44-12.561-28-28-28H164c-5.522,0-10,4.478-10,10v36v36c0,5.522,4.478,10,10,10h24.353
			c15.439,0,28-12.561,28-28c0-6.849-2.476-13.129-6.575-18C213.877,261.05,216.353,254.77,216.353,247.921z M188.353,291.921H174
			v-16h14.353c4.411,0,8,3.589,8,8S192.764,291.921,188.353,291.921z M188.353,255.921H174v-16h14.353c4.411,0,8,3.589,8,8
			C196.353,252.332,192.764,255.921,188.353,255.921z"/>
	</g>
</g>
<g>
	<g>
		<path d="M277.1,219.921c-5.522,0-10,4.478-10,10v52c0,5.514-4.486,10-10,10c-5.514,0-10-4.486-10-10v-52c0-5.523-4.478-10-10-10
			c-5.522,0-10,4.478-10,10v52c0,16.542,13.458,30,30,30s30-13.458,30-30v-52C287.1,224.399,282.622,219.921,277.1,219.921z"/>
	</g>
</g>
<g>
	<g>
		<path d="M331.177,255.921h-6.354c-4.411,0-8-3.589-8-8c0-4.411,3.589-8,8-8h12.653c5.522,0,10-4.478,10-10c0-5.522-4.478-10-10-10
			h-12.653c-15.439,0-28,12.561-28,28c0,15.439,12.561,28,28,28h6.354c4.411,0,8,3.589,8,8s-3.589,8-8,8h-16.65
			c-5.522,0-10,4.478-10,10c0,5.522,4.478,10,10,10h16.65c15.439,0,28-12.561,28-28
			C359.177,268.482,346.616,255.921,331.177,255.921z"/>
	</g>
</g>
<g>
</g>
<g>
</g>
<g>
</g>
<g>
</g>
<g>
</g>
<g>
</g>
<g>
</g>
<g>
</g>
<g>
</g>
<g>
</g>
<g>
</g>
<g>
</g>
<g>
</g>
<g>
</g>
<g>
</g>
</svg>
