<svg viewBox="0 0 192 192" xmlns="http://www.w3.org/2000/svg" xmlns:xlink="http://www.w3.org/1999/xlink" id="Cloud" overflow="hidden"><path d="M184 152C184 169.67 144.6 184 96 184 47.4 184 8 169.67 8 152 8 138.77 30.08 127.42 61.58 122.55L75.94 136.91C65.2473 137.793 54.6687 139.736 44.36 142.71 40.1143 143.953 35.9799 145.548 32 147.48 30.22 148.36 28 150.18 28 152 28 153.82 30.23 155.63 32 156.51 35.9781 158.448 40.1128 160.047 44.36 161.29 58.65 165.62 77 168 96 168 115 168 133.35 165.62 147.64 161.29 151.887 160.047 156.022 158.448 160 156.51 161.77 155.63 164 153.81 164 152 164 150.19 161.76 148.36 160 147.48 156.027 145.549 151.899 143.954 147.66 142.71 137.351 139.736 126.773 137.793 116.08 136.91L130.44 122.55C161.92 127.42 184 138.77 184 152ZM132 60 112 80 112 8 80 8 80 80 60 60 36 80 96 140 156 80Z" stroke="none" stroke-width="1" stroke-linecap="butt" fill="#FFFFFF" fill-opacity="1"/></svg>