<svg id="Cloud" xmlns="http://www.w3.org/2000/svg" viewBox="0 0 192 192"><title>Portal_Arrow</title><path d="M184,152c0,17.67-39.4,32-88,32S8,169.67,8,152c0-13.23,22.08-24.58,53.58-29.45l14.36,14.36a162.05,162.05,0,0,0-31.58,5.8A79.37,79.37,0,0,0,32,147.48c-1.78.88-4,2.7-4,4.52s2.23,3.63,4,4.51a78.61,78.61,0,0,0,12.36,4.78C58.65,165.62,77,168,96,168s37.35-2.38,51.64-6.71A78.61,78.61,0,0,0,160,156.51c1.77-.88,4-2.7,4-4.51s-2.24-3.64-4-4.52a79.37,79.37,0,0,0-12.34-4.77,162.05,162.05,0,0,0-31.58-5.8l14.36-14.36C161.92,127.42,184,138.77,184,152ZM132,60,112,80V8H80V80L60,60,36,80l60,60,60-60Z"/></svg>