<svg id="Cloud" xmlns="http://www.w3.org/2000/svg" viewBox="0 0 192 192"><title>Rotate_Left_Dash</title><path d="M88,163.85V184a71.67,71.67,0,0,1-36.4-14.82l14.3-14.3A51.73,51.73,0,0,0,88,163.85Zm38-9a51.65,51.65,0,0,1-22,9V184a71.63,71.63,0,0,0,36.34-14.88ZM96,60A52.11,52.11,0,0,1,148,112a52.94,52.94,0,0,1-10.47,31.64l14.25,14.25A72.31,72.31,0,0,0,96,40L80,40,98.14,22.14,84,8,40,50,84,92,98.14,77.86,80,60ZM38.91,68.12A72.31,72.31,0,0,0,24,104H44c1.23-7.91,4.86-15.24,9.24-21.56ZM24,120a73.14,73.14,0,0,0,16.22,37.89l14.25-14.25c-5-6.7-9.13-14.89-10.47-23.64Z"/></svg>