<?xml version="1.0" encoding="iso-8859-1"?>
<!-- Generator: Adobe Illustrator 19.0.0, SVG Export Plug-In . SVG Version: 6.00 Build 0)  -->
<svg version="1.1" id="Capa_1" xmlns="http://www.w3.org/2000/svg" xmlns:xlink="http://www.w3.org/1999/xlink" x="0px" y="0px"
	 viewBox="0 0 427.6 427.6" style="enable-background:new 0 0 427.6 427.6;" xml:space="preserve">
<g>
	<g>
		<path d="M268.8,0H159.2c-19.6,0-36,16-36,36v298.4c0,19.6,16,36,36,36H182v51.2c0,3.2,2.8,6,6,6s6-2.8,6-6v-51.2h41.6v51.2
			c0,3.2,2.8,6,6,6s6-2.8,6-6v-51.2h20.8c19.6,0,36-16,36-36V35.6C304.4,16,288.4,0,268.8,0z M292.8,334.4c0,13.2-10.8,24-24,24
			H159.2c-13.2,0-24-10.8-24-24V35.6c0-13.2,10.8-24,24-24h109.6c13.2,0,24,10.8,24,24V334.4z"/>
	</g>
</g>
<g>
	<g>
		<path d="M214,33.6c-26.4,0-47.6,21.6-47.6,47.6c0,26.4,21.6,47.6,47.6,47.6c26.4,0,47.6-21.6,47.6-47.6S240.4,33.6,214,33.6z
			 M214,117.2c-19.6,0-36-16-36-36s16-36,36-36s36,16,36,36S233.6,117.2,214,117.2z"/>
	</g>
</g>
<g>
	<g>
		<path d="M214,138.4c-26.4,0-47.6,21.6-47.6,47.6c0,26.4,21.2,47.6,47.6,47.6c26.4,0,47.6-21.6,47.6-47.6
			C261.6,159.6,240.4,138.4,214,138.4z M214,222c-19.6,0-36-16-36-36c0-19.6,16-36,36-36s36,16,36,36C250,205.6,233.6,222,214,222z"
			/>
	</g>
</g>
<g>
	<g>
		<path d="M214,242.8c-26.4,0-47.6,21.6-47.6,47.6c0,26.4,21.6,47.6,47.6,47.6c26.4,0,47.6-21.6,47.6-47.6S240.4,242.8,214,242.8z
			 M214,326.4c-19.6,0-36-16-36-36c0-19.6,16-36,36-36s36,16,36,36S233.6,326.4,214,326.4z"/>
	</g>
</g>
<g>
</g>
<g>
</g>
<g>
</g>
<g>
</g>
<g>
</g>
<g>
</g>
<g>
</g>
<g>
</g>
<g>
</g>
<g>
</g>
<g>
</g>
<g>
</g>
<g>
</g>
<g>
</g>
<g>
</g>
</svg>
