<svg id="Cloud" xmlns="http://www.w3.org/2000/svg" viewBox="0 0 192 192"><title>Paint_Brush</title><path d="M24,108H12L60,60l72,72L84,180V168H72V156H60V144H48V132H36V120H24ZM157.76,25.76a6,6,0,1,0,8.48,0A6,6,0,0,0,157.76,25.76Zm20.38,16.38a19.18,19.18,0,0,1-2.2,1.86l-43.1,32.89,18.62,18.62a12.06,12.06,0,0,1,0,17L140,124,68,52,79.46,40.49a12,12,0,0,1,17,0l18.62,18.62c8.23-10.78,32.91-43,33-43a19.18,19.18,0,0,1,1.86-2.2,20,20,0,1,1,28.28,28.28ZM22,184a14,14,0,0,0,12-21.23L22,140,10,162.77A14,14,0,0,0,22,184Z"/></svg>