<svg viewBox="0 0 192 192" xmlns="http://www.w3.org/2000/svg" xmlns:xlink="http://www.w3.org/1999/xlink" id="Cloud" overflow="hidden"><path d="M24 108 12 108 60 60 132 132 84 180 84 168 72 168 72 156 60 156 60 144 48 144 48 132 36 132 36 120 24 120ZM157.76 25.76C155.415 28.1017 155.413 31.9007 157.755 34.2453 160.096 36.5899 163.895 36.5922 166.24 34.2506 168.585 31.9089 168.587 28.1099 166.245 25.7653 166.244 25.7635 166.242 25.7618 166.24 25.76 163.897 23.4204 160.103 23.4204 157.76 25.76ZM178.14 42.14C177.454 42.8143 176.719 43.436 175.94 44L132.84 76.89 151.46 95.51C156.133 100.213 156.133 107.807 151.46 112.51L140 124 68 52 79.46 40.49C84.1381 35.7956 91.7361 35.7824 96.4305 40.4605 96.4404 40.4703 96.4502 40.4802 96.46 40.49L115.08 59.11C123.31 48.33 147.99 16.11 148.08 16.11 148.644 15.3311 149.266 14.5957 149.94 13.91 157.614 5.96496 170.275 5.7449 178.22 13.4185 186.165 21.092 186.385 33.7534 178.712 41.6985 178.551 41.8652 178.387 42.029 178.22 42.19ZM22 184C29.732 184.006 36.0051 177.743 36.0114 170.011 36.0135 167.459 35.3179 164.955 34 162.77L22 140 10 162.77C6.00698 169.391 8.13748 177.996 14.7586 181.989 16.944 183.307 19.448 184.002 22 184Z" stroke="none" stroke-width="1" stroke-linecap="butt" fill="#FFFFFF" fill-opacity="1"/></svg>